<svg xmlns="http://www.w3.org/2000/svg" version="1.1" xmlns:xlink="http://www.w3.org/1999/xlink" viewBox="0 0 200 200"><rect width="200" height="200" fill="url('#gradient')"></rect><defs><linearGradient id="gradient" gradientTransform="rotate(98 0.5 0.5)"><stop offset="0%" stop-color="#2e4f3a"></stop><stop offset="100%" stop-color="#afc8a3"></stop></linearGradient></defs><g><g fill="#e7dcc8" transform="matrix(3.019659239842726,0,0,3.019659239842726,6.76411399756941,121.46915246493538)" stroke="#2b2b2b" stroke-width="0.2"><path d="M1.07-14.22L5.58-14.22L8.75-4.33L11.91-14.22L16.43-14.22L16.43 0L12.99 0L12.99-3.32L13.32-10.12L9.88 0L7.62 0L4.17-10.13L4.50-3.32L4.50 0L1.07 0L1.07-14.22ZM27.42-8.57L27.42-6.03L22.03-6.03L22.03-2.64L28.40-2.64L28.40 0L18.60 0L18.60-14.22L28.42-14.22L28.42-11.57L22.03-11.57L22.03-8.57L27.42-8.57ZM34.47 0L29.79 0L29.79-14.22L34.38-14.22Q36.26-14.22 37.76-13.36Q39.27-12.51 40.11-10.95Q40.96-9.39 40.97-7.46L40.97-7.46L40.97-6.81Q40.97-4.85 40.14-3.31Q39.32-1.76 37.82-0.88Q36.32-0.01 34.47 0L34.47 0ZM34.38-11.57L33.22-11.57L33.22-2.64L34.41-2.64Q35.89-2.64 36.68-3.69Q37.47-4.74 37.47-6.81L37.47-6.81L37.47-7.42Q37.47-9.48 36.68-10.53Q35.89-11.57 34.38-11.57L34.38-11.57ZM46.38-14.22L46.38 0L42.96 0L42.96-14.22L46.38-14.22ZM56.62 0L53.59-5.29L52.19-3.75L52.19 0L48.76 0L48.76-14.22L52.19-14.22L52.19-7.95L53.38-9.76L56.45-14.22L60.68-14.22L55.88-7.93L60.68 0L56.62 0Z"></path></g></g></svg>